<svg xmlns="http://www.w3.org/2000/svg" viewBox="0 0 1098 1093" width="1098" height="1093" fill="currentColor" role="img" aria-label="Logo">
  <path d="M462.11 1079.44C437.72 1075.99 410.19 1069.81 386.15 1062.4C351.07 1051.58 329.36 1042.54 299.5 1026.31C261.96 1005.91 254.14 1001.01 234.5 985.58C224.6 977.79 213.57 969.2 210 966.48C193.62 954 178.95 940.68 162.13 923.03C143.98 903.98 140.01 899.08 140 895.75C140 894.13 141.89 894 165.78 894C179.95 894 195.37 893.53 200.03 892.96C208.78 891.89 268.5 878.31 280 874.78C283.57 873.69 296.66 868.79 309.07 863.89C321.49 859 333.05 855 334.77 855C338.29 855 341.63 856.79 354.5 865.55C369.57 875.82 404.79 893.27 424.84 900.42C470.55 916.71 478.4 918.48 518.5 921.55C547.82 923.8 552.38 923.91 573 922.94C622.85 920.57 664.77 908.52 716.74 881.62C730.07 874.71 745.14 866.27 750.24 862.86C784.93 839.62 818.2 808.05 844.17 773.75C853.29 761.7 856.78 759.08 855.47 765.25C852.2 780.67 830.81 838.57 821.57 857C811.65 876.81 795.86 905.29 789.75 914.39C764.72 951.71 733.22 985.75 703.5 1007.58C671.31 1031.23 648.37 1044.47 617.5 1057.23C596.91 1065.73 590.8 1067.78 574.5 1071.64C550.21 1077.39 526.6 1080.05 495.5 1080.55C478.87 1080.81 469.62 1080.51 462.11 1079.44ZM655.01 1076.75C655.01 1076.06 664.57 1069.24 676.24 1061.59C687.92 1053.93 707.51 1040.06 719.78 1030.75C739.05 1016.13 744.95 1010.94 763.14 992.66C774.72 981.02 786.8 968.11 789.98 963.97C793.16 959.82 803.88 944.4 813.82 929.69C844.29 884.56 862.02 846.81 879.66 789.5C885.33 771.1 888.89 756.64 894.96 727.5C906.37 672.68 908.02 663.58 918.02 600.5C923.75 564.39 924.72 552.23 923.13 536.68C922.52 530.72 921.51 498.32 920.89 464.68C920.22 428.61 919.36 403 918.79 402.29C918.03 401.35 884.97 401.09 771.46 401.12C645.38 401.17 624.93 401.37 623.91 402.61C621.93 404.99 615.79 443.05 617.12 444.65C618.05 445.77 634.68 446 713.06 446C772.24 446 808.83 446.37 810.43 446.98C812.04 447.59 813 448.72 813 450.01C813 451.14 810.31 468.37 807.03 488.28C803.75 508.2 799.04 538 796.57 554.5C792.4 582.41 783.91 636.84 780.53 657.42C779.72 662.33 778.48 666.74 777.78 667.21C777.08 667.69 749.85 667.95 717.29 667.79C665.51 667.54 657.88 667.69 656.56 669.01C655.21 670.36 655.92 671.28 663.19 677.51C693.16 703.21 719.3 720.48 768.25 746.88C773.61 749.77 778 752.71 778 753.42C778 758.48 715.86 818 710.57 818C708.91 818 689.77 803.03 657.98 776.86C635.5 758.35 611.06 732.03 588.67 702.2C576.85 686.46 576.64 686.46 574.42 702.08C569.72 735.09 568.82 741.23 567.59 748.5C566.85 752.9 565.3 761.16 564.15 766.85C563 772.54 560.92 786.49 559.53 797.85C558.15 809.21 556.35 820.75 555.53 823.51C554.72 826.27 553.34 832.34 552.47 837.01C551.6 841.68 550.44 847.19 549.9 849.26L548.92 853.02L509.71 852.76L470.5 852.5L470.2 847.75C469.82 841.89 472.71 821.3 478.52 788.5C480.96 774.75 483.41 760.12 483.96 756C485.02 748.08 488.94 726.4 491.96 711.77C493.39 704.8 493.5 702.83 492.5 702C490.92 700.69 487.68 703.42 471 720.15C457.69 733.49 428.39 758.93 413.5 770.06C397.13 782.3 343.6 814.9 322.5 825.48C282.65 845.47 239.17 858.46 198 862.67C171.72 865.37 144.46 864.97 127.11 861.65C106.41 857.68 106.69 857.89 93.23 836C81.84 817.48 61 777.29 61 773.83C61 771.38 64.12 771.45 71.59 774.07C74.84 775.2 89.55 779 104.27 782.51C125.16 787.49 134.03 789.13 144.64 789.98C160.93 791.28 166.45 790.9 197 786.38C215.82 783.59 225.18 781.6 244 776.39C256.93 772.81 270.65 768.7 274.5 767.26C293.61 760.13 341.78 735.88 356.5 725.99C360.35 723.4 365.52 720.26 368 719.01C380.91 712.46 398.66 699.28 419.85 680.5C427.67 673.56 430.67 670.31 429.99 669.49C429.29 668.64 411.85 668.16 365.37 667.69C330.36 667.34 301.53 666.87 301.3 666.64C300.89 666.22 308.77 621.18 309.46 620.07C309.66 619.74 313.92 596.76 318.92 568.99C329.38 510.88 341.53 448.14 342.5 447.17C342.87 446.8 385.11 446.27 436.38 446C522.81 445.54 529.78 445.37 532.25 443.76C533.91 442.67 535.11 440.79 535.45 438.76C535.75 436.97 537.27 428.41 538.84 419.74C541.29 406.11 541.48 403.82 540.24 402.78C539.15 401.88 513.29 401.48 433.9 401.17L329 400.75L329.03 398.63C329.07 395.7 331.55 392.64 354.68 366.93C365.78 354.59 376.18 342.7 377.79 340.5C382.47 334.11 400.99 315.05 404.08 313.46C406.48 312.22 418.08 312 481.33 312C540.48 312 555.97 311.74 556.81 310.72C557.4 310.02 558.56 305.18 559.41 299.97C561.7 285.83 566.64 262.02 567.45 261.21C567.85 260.82 584.98 260.5 605.53 260.5C633.44 260.5 643.21 260.81 644.11 261.71C645.06 262.66 644.48 267.93 641.46 285.98C638.04 306.38 637.77 309.2 639.09 310.52C640.39 311.82 667.15 312.03 858.26 312.25L1075.94 312.5L1078.03 314.58C1080.06 316.61 1080.16 318.41 1082.03 383.08C1083.08 419.61 1084.41 462.55 1084.99 478.5C1086.52 520.95 1086.29 571.62 1084.44 598C1082.09 631.48 1076.44 662.05 1065.57 700.09C1053.59 742.04 1048.6 755.13 1029.78 794C1010.07 834.71 979.61 879.42 951.75 908.59C918.84 943.03 894.86 964.5 864.5 986.69C840.72 1004.07 833.37 1008.63 801.5 1025.75C763.29 1046.28 738.58 1056.38 701 1066.84C659.57 1078.38 654.99 1079.36 655.01 1076.75ZM164 760.35C161.53 760.18 151.62 759.54 142 758.94C124.76 757.85 108.47 755.17 93 750.88C76.99 746.44 50.21 734.06 45.3 728.82C38.65 721.74 27.46 684.09 20.08 644C15.54 619.33 15.37 617.92 13.58 589C12.47 571.13 12.46 562.01 13.55 535C15.09 496.97 15.57 492.72 22.04 458.89C29.52 419.8 33.17 406.95 47.64 368.77C53.81 352.49 60.95 336.13 68.51 320.94C74.83 308.24 80 297.01 80 295.98C80 294.96 80.49 293.82 81.09 293.45C82.13 292.8 91.95 278.04 109.33 251C126.85 223.75 168.4 178.89 204.29 148.5C214.03 140.25 222 132.97 222 132.33C222 129.99 260.13 104.92 287.5 89.27C332.08 63.77 338.69 60.76 388 43.57C425.75 30.41 470.8 20.69 521.25 14.8L540.5 12.56L803.79 12.26C986.55 12.06 1067.67 12.29 1069.04 13.02C1071.71 14.45 1071.6 18.87 1068.46 35.24C1065.72 49.5 1059.75 66.19 1052.98 78.5C1033.97 113.08 998.93 139.32 956.95 150.44C933.88 156.55 945.51 156.21 733 157.02C528.99 157.79 532.35 157.71 503.29 162.55C473.63 167.48 453.11 173.49 419 187.22C398.2 195.59 393.48 197.91 372.5 210.01C340.46 228.5 317.32 246.51 288.48 275.43C260.51 303.46 250.36 316.71 228.62 353.57C217.85 371.82 201 408.29 201 413.34C201 414.66 199.89 417.74 198.53 420.17C197.17 422.6 194.03 432.44 191.55 442.04C180.3 485.56 177.5 507.13 177.58 549.5C177.63 575.66 177.75 577.22 181.32 599.5C188.56 644.73 200.63 681.31 223.56 727.54C229.3 739.12 234 749.07 234 749.65C234 750.95 224.79 752.95 197.81 757.51C178.26 760.81 174.94 761.09 164 760.35ZM505.95 614.24C507.79 612.75 508.47 610.07 510.44 596.49C512.03 585.58 512.45 580.1 511.76 579.25C510.98 578.28 498.4 578 455 578C411.58 578 399.03 578.28 398.27 579.25C397.28 580.51 392 607.74 392 611.55C392 616.03 391.58 616 449.09 616C499.76 616 503.94 615.87 505.95 614.24ZM706.83 614.7C708.48 612.71 712.9 580.75 711.73 579.25C710.97 578.28 698.12 578 653.5 578C604.88 578 596.06 578.22 595.05 579.44C593.64 581.14 590 602.48 590 609.05C590 611.55 590.54 614.14 591.2 614.8C593.02 616.62 705.32 616.52 706.83 614.7ZM519.1 531.17C521.52 528.65 526.65 498.48 524.99 496.49C523.92 495.2 516.23 495 468.03 495C416.21 495 412.2 495.12 410.79 496.75C409.87 497.81 408.29 504.72 406.8 514.27C404.63 528.15 404.51 530.18 405.82 531.27C407.82 532.93 433.73 533.59 480.5 533.17C513.5 532.88 517.67 532.66 519.1 531.17ZM718.16 530.06C719.59 528.29 720 526.07 720 520.14C720 514.93 720.75 510.06 722.37 504.82C724.05 499.37 724.43 496.83 723.67 496.07C722.94 495.34 704.84 495 665.92 495C619.1 495 609.05 495.24 608.11 496.37C606.74 498.02 602.55 527.4 603.38 529.55C603.7 530.37 604.98 531.49 606.23 532.03C607.65 532.64 628.66 532.88 662.41 532.67L716.31 532.33L718.16 530.06Z" />
</svg>
